<?xml version="1.0" encoding="UTF-8" standalone="no"?>
<svg version="1.1" id="svg102" width="319.37634" height="192.5771" xmlns="http://www.w3.org/2000/svg" xmlns:svg="http://www.w3.org/2000/svg">
  <g transform="translate(169.04857,80.18519)">
    <g id="copy">
      <path d="m 2.0762,0.61816 v 11.193 h 3.375 v 3.5703 h 8.4727 v -11.193 h -3.375 v -3.5703 z m 1.3184,1.3184 h 5.8359 v 2.252 H 5.4512 v 6.3047 H 3.3946 Z m 3.375,3.5703 h 5.8359 v 8.5566 H 6.7696 Z" style="stroke-width:0.65135;stroke-linejoin:round;fill:currentColor" id="path1" />
    </g>
  </g>
  <g transform="translate(78,142.07711)">
    <g id="freecolor">
      <rect x="1.5" y="2.5" width="6" height="5" style="fill:#ffcc00;stroke-width:2.923;stroke-linejoin:round;stroke-opacity:0" id="rect1" />
      <rect x="8.5" y="2.5" width="6" height="5" style="fill:#ff00cc;stroke-width:2.923;stroke-linejoin:round;stroke-opacity:0" id="rect2" />
      <rect x="1.5" y="8.5" width="6" height="5" style="fill:#2ad4ff;stroke-width:2.923;stroke-linejoin:round;stroke-opacity:0" id="rect3" />
      <rect x="8.5" y="8.5" width="6" height="5" style="fill:#8dd35f;stroke-width:2.923;stroke-linejoin:round;stroke-opacity:0" id="rect4" />
    </g>
  </g>
  <g transform="translate(43.5,142.57711)">
    <g id="defaultcolor">
      <rect x="1.5" y="2.5" width="12" height="10" style="fill:currentColor" id="rect5" />
    </g>
  </g>
  <g transform="translate(169.04862,142.07711)">
    <g id="dark">
      <path d="M 10,9 H 2 V 3 h 8 z" style="fill:none;stroke:currentColor;stroke-width:1px" id="path5" />
      <path d="M 14,13 H 6 V 7 h 8 z" style="fill:currentColor;stroke:currentColor;stroke-width:1px" id="path6" />
    </g>
  </g>
  <g transform="translate(139.0473,142.07711)">
    <g id="delete">
      <path d="M 3.5,2 2,3.5 6.5,8 2,12.5 3.5,14 8,9.5 12.5,14 14,12.5 9.5000001,8 14,3.5 12.5,2 8,6.5 Z" id="path7" />
    </g>
  </g>
  <g transform="matrix(0.02537313,0,0,0.02428571,263.60604,62.657141)" style="stroke-width:40.2844">
    <g id="double_arrow">
      <path d="M 242,-200 442,-480 242,-760 h 98 l 200,280 -200,280 z m 238,0 200,-280 -200,-280 h 98 l 200,280 -200,280 z" id="path8" style="stroke-width:40.2844" />
    </g>
  </g>
  <g transform="translate(109.3672,142.41996)">
    <g id="edit">
      <path d="M 11.899,13.314 7.6564,9.0714 6.2422,11.8998 1.9996,2.0003 l 9.8995,4.2426 -2.8284,1.4142 4.2426,4.2426 z" id="path9" />
    </g>
  </g>
  <g transform="translate(78,112.47355)">
    <g id="ellipse">
      <ellipse cx="8" cy="8" rx="7" ry="5" style="fill:none;stroke:currentColor;stroke-width:2" id="ellipse9" />
      <path d="m 10,6 -4,4 m 0,-4 4,4" style="fill:none;stroke:currentColor;stroke-width:1px" id="path10" />
    </g>
  </g>
  <g transform="translate(139.0473,112.47356)">
    <g id="ellipsef">
      <path d="M 7.9824,3 A 7,5 0 0 0 1,8 7,5 0 0 0 8,13 7,5 0 0 0 15,8 7,5 0 0 0 8,3 7,5 0 0 0 7.982422,3 Z M 6.3535,5.6465 8,7.293 9.6465,5.6465 l 0.70703,0.70703 -1.6465,1.6465 1.6465,1.6465 L 9.6465,10.35356 8,8.70706 6.3535,10.35356 5.64647,9.64653 7.29297,8.00003 5.64647,6.35353 Z" id="path11" />
    </g>
  </g>
  <g transform="translate(79.17345,81.34358)">
    <g id="erease-noborder-rect">
      <rect x="0.32455" y="0.33192" width="13.004" height="13.019" ry="0" style="opacity:0.992;fill:none;stroke:currentColor;stroke-width:0.651;stroke-dasharray:2.4738, 0.651" id="rect11" />
    </g>
  </g>
  <g transform="translate(170.22238,44.160794)">
    <g id="erease-noborder">
      <path d="m 6.8132,0.32568 c 3.5973,0 6.5135,2.9162 6.5135,6.5135 0,3.5973 -2.9162,6.5135 -6.5135,6.5135 -3.5973,0 -6.5135,-2.9162 -6.5135,-6.5135 0,-3.5973 2.9162,-6.5135 6.5135,-6.5135 z" style="fill:none;stroke:currentColor;stroke-width:0.65135;stroke-dasharray:2.60539, 1.3027" id="path12" />
    </g>
  </g>
  <g transform="translate(237.54523,80.2397)">
    <g id="exit">
      <path d="M 6,2.5742 C 3.4936,3.41511 1.6758,5.7844 1.6758,8.5664 c 2e-7,3.4807 2.8435,6.3242 6.3242,6.3242 3.4807,0 6.3242,-2.8435 6.3242,-6.3242 0,-2.782 -1.8178,-5.1513 -4.3242,-5.9922 V 4.75 c 1.3787,0.71968 2.3242,2.1441 2.3242,3.8164 0,2.3998 -1.9244,4.3242 -4.3242,4.3242 -2.3998,0 -4.3242,-1.9244 -4.3242,-4.3242 C 3.6758,6.8941 4.62132,5.4697 6,4.75 Z" style="color:#000000;font-variant-ligatures:normal;font-variant-position:normal;font-variant-caps:normal;font-variant-numeric:normal;font-variant-alternates:normal;font-variant-east-asian:normal;font-feature-settings:normal;font-variation-settings:normal;text-indent:0;text-decoration-line:none;text-decoration-style:solid;text-decoration-color:#000000;text-transform:none;text-orientation:mixed;dominant-baseline:auto;white-space:normal;shape-padding:0;shape-margin:0;inline-size:0;opacity:0.992;isolation:auto;mix-blend-mode:normal;solid-color:#000000;fill:#444444;color-rendering:auto;image-rendering:auto;shape-rendering:auto;stop-color:#000000" id="path13" />
      <path d="M 7,1 V 7 H 9 V 1 Z" style="color:#000000;font-variant-ligatures:normal;font-variant-position:normal;font-variant-caps:normal;font-variant-numeric:normal;font-variant-alternates:normal;font-variant-east-asian:normal;font-feature-settings:normal;font-variation-settings:normal;text-indent:0;text-decoration-line:none;text-decoration-style:solid;text-decoration-color:#000000;text-transform:none;text-orientation:mixed;dominant-baseline:auto;white-space:normal;shape-padding:0;shape-margin:0;inline-size:0;isolation:auto;mix-blend-mode:normal;solid-color:#000000;fill:#444444;color-rendering:auto;image-rendering:auto;shape-rendering:auto;stop-color:#000000" id="path14" />
    </g>
  </g>
  <g transform="translate(2.32,78)">
    <g id="file_open_black_24dp">
      <g transform="translate(-4,-2)" id="g15">
        <path style="fill: currentColor" d="M 15,22 H 6 C 4.9,22 4,21.1 4,20 V 4 C 4,2.9 4.9,2 6,2 h 8 l 6,6 v 6 H 18.5 V 9 H 13 V 3.5 H 5.5 v 17 H 15 Z m 4,-0.34 v -2.24 l 2.95,2.95 1.41,-1.41 L 20.41,18 h 2.24 V 16 H 17 v 5.66 z" id="path15" />
      </g>
    </g>
  </g>
  <g transform="translate(268.79633,4.25)">
    <g id="fromclipboard">
      <path d="m 1,1 h 9 V 11 H 1 V 1" style="fill:none;stroke:currentColor;stroke-width:1px;stroke-linecap:square" id="path16" />
      <path d="M 1,7 4,4 10,8" style="fill:none;stroke:currentColor;stroke-width:1px" id="path17" />
      <path d="M 13,15 V 11" style="fill:none;stroke:currentColor;stroke-width:1px" id="path18" />
      <path d="m 11,13 h 4" style="fill:none;stroke:currentColor;stroke-width:1px" id="path19" />
    </g>
  </g>
  <g transform="translate(268.54633,112.47355)">
    <g id="fullscreen">
      <path d="m 14,9 v 4 H 10 M 2,9 v 4 H 6 M 14,7 V 3 H 10 M 2,7 V 3 h 4" style="fill:none;stroke:currentColor;stroke-width:1px" id="path20" />
    </g>
  </g>
  <g transform="translate(202.90058,112.07711)">
    <g id="geodreieck">
      <path d="M 11.761513,5.7511187 A 4.25,4.25 0 0 1 11.74944,11.760957 4.25,4.25 0 0 1 5.7395992,11.749998" style="fill:none;stroke:currentColor" id="path21" />
      <path d="M 2.5,15 H 15 V 2.5 Z" style="fill:none;stroke:currentColor;stroke-width:1px" id="path22" />
    </g>
  </g>
  <g transform="translate(301.46133,80.185)">
    <g id="go-bottom">
      <path d="m 10,14 a 2,2 0 0 1 -2,2 2,2 0 0 1 -2,-2 2,2 0 0 1 2,-2 2,2 0 0 1 2,2 z" id="path23" />
      <path d="M 7,0 V 7 L 3.5,3.5 2,5 8,11 14,5 12.5,3.5 9,7 V 0 Z" id="path24" />
    </g>
  </g>
  <g transform="translate(237.54533,142.07831)">
    <g id="go-left">
      <path d="M 2.0012,5.9988 C 1.07842,5.981819 0.2119,6.68796 0.0424,7.5952 -0.1536,8.47177 0.32811,9.4381 1.1475,9.8074 1.99008,10.22518 3.0985,9.93608 3.6297,9.15994 4.19064,8.40481 4.10253,7.26274 3.43294,6.60224 3.06227,6.2192 2.5343,5.99666 2.00124,5.99879 Z" id="path25" />
      <path d="m 16.001,8.9988 h -7 l 3.5,3.5 -1.5,1.5 -6,-6 6,-6 1.5,1.5 -3.5,3.5 h 7 z" id="path26" />
    </g>
  </g>
  <g transform="translate(169.04853,112.47475)">
    <g id="go-right">
      <path d="m 13.999,9.9988 c 0.92278,0.016981 1.7893,-0.68916 1.9588,-1.5964 0.196,-0.87657 -0.28571,-1.8429 -1.1051,-2.2122 -0.84258,-0.41778 -1.951,-0.12868 -2.4822,0.64746 -0.56094,0.75513 -0.47283,1.8972 0.19676,2.5577 0.37067,0.38304 0.89864,0.60558 1.4317,0.60345 z" id="path27" />
      <path d="m -0.001225,6.9988 h 7 l -3.5,-3.5 1.5,-1.5 6,6 -6,6 -1.5,-1.5 3.5,-3.5 h -7 z" id="path28" />
    </g>
  </g>
  <g transform="translate(203.29703,43.001201)">
    <g id="go-top">
      <path d="M 10,2 C 10.016981,1.07722 9.31084,0.2107 8.4036,0.0412 7.52703,-0.1548 6.5607,0.32691 6.1914,1.1463 5.77362,1.98888 6.06272,3.0973 6.83886,3.6285 7.59399,4.18944 8.73606,4.10133 9.39656,3.43174 9.7796,3.06107 10.00214,2.5331 10.00001,2.00004 Z" id="path29" />
      <path d="M 7,16 V 9 L 3.5,12.5 2,11 8,5 14,11 12.5,12.5 9,9 v 7 z" id="path30" />
    </g>
  </g>
  <g transform="translate(297.46133)">
    <g id="help">
      <g style="opacity:0.75" id="g34">
        <g id="g33">
          <path style="clip-rule:evenodd;fill-rule:evenodd" d="m 12.001,2.085 c -5.478,0 -9.916,4.438 -9.916,9.916 0,5.476 4.438,9.914 9.916,9.914 5.476,0 9.914,-4.438 9.914,-9.914 0,-5.478 -4.438,-9.916 -9.914,-9.916 z m 0.001,18 c -4.465,0 -8.084,-3.619 -8.084,-8.083 0,-4.465 3.619,-8.084 8.084,-8.084 4.464,0 8.083,3.619 8.083,8.084 0,4.464 -3.619,8.083 -8.083,8.083 z" id="path31" />
          <g id="g32">
            <path style="clip-rule:evenodd;fill-rule:evenodd" d="m 11.766,6.688 c -2.5,0 -3.219,2.188 -3.219,2.188 L 9.958,9.73 c 0,0 0.298,-0.791 0.901,-1.229 0.516,-0.375 1.625,-0.625 2.219,0.125 C 13.779,9.511 12.908,10.213 12,11.345 11.047,12.531 11,15 11,15 h 1.969 c 0,0 0.135,-2.318 1.041,-3.381 0.603,-0.707 1.443,-1.338 1.443,-2.494 0,-1.156 -1.187,-2.437 -3.687,-2.437 z" id="path32" />
            <rect x="11" y="16" style="clip-rule:evenodd;fill-rule:evenodd" width="2" height="2" id="rect32" />
          </g>
        </g>
      </g>
    </g>
  </g>
  <g transform="translate(109.02365,43)">
    <g id="karopapier">
      <path d="M 2,2 H 14" style="fill:none;stroke:currentColor;stroke-width:1px;stroke-linecap:square" id="path34" />
      <path d="M 2,6 H 14" style="fill:none;stroke:currentColor;stroke-width:1px;stroke-linecap:square" id="path35" />
      <path d="M 2,10 H 14" style="fill:none;stroke:currentColor;stroke-width:1px;stroke-linecap:square" id="path36" />
      <path d="M 2,14 H 14" style="fill:none;stroke:currentColor;stroke-width:1px;stroke-linecap:square" id="path37" />
      <path d="M 2,2 V 14" style="fill:none;stroke:currentColor;stroke-width:1px;stroke-linecap:square" id="path38" />
      <path d="M 6,2 V 14" style="fill:none;stroke:currentColor;stroke-width:1px;stroke-linecap:square" id="path39" />
      <path d="M 10,2 V 14" style="fill:none;stroke:currentColor;stroke-width:1px;stroke-linecap:square" id="path40" />
      <path d="M 14,2 V 14" style="fill:none;stroke:currentColor;stroke-width:1px;stroke-linecap:square" id="path41" />
    </g>
  </g>
  <g transform="translate(268.54633,80.185)">
    <g id="kreis">
      <circle cx="8" cy="8" r="7" style="fill:none;stroke:currentColor;stroke-width:2" id="circle41" />
      <path d="m 10,6 -4,4 m 0,-4 4,4" style="fill:none;stroke:currentColor;stroke-width:1px" id="path42" />
    </g>
  </g>
  <g transform="translate(78,4.0000785)">
    <g id="kreisf">
      <path d="M 7.9062,1 A 7,7 0 0 0 1,8 7,7 0 0 0 8,15 7,7 0 0 0 15,8 7,7 0 0 0 8,1 7,7 0 0 0 7.90625,1 Z M 6.3535,5.6465 8,7.293 9.6465,5.6465 l 0.70703,0.70703 -1.6465,1.6465 1.6465,1.6465 L 9.6465,10.35356 8,8.70706 6.3535,10.35356 5.64647,9.64653 7.29297,8.00003 5.64647,6.35353 Z" id="path43" />
    </g>
  </g>
  <g transform="translate(203.29618,80.18415)">
    <g id="linie">
      <path d="m 12.778,13.778 c 0,0 0.5,0.5 1,0 0.5,-0.5 0,-1 0,-1 L 3.2237,2.2237 c 0,0 -0.5,-0.5 -1,0 -0.5,0.5 0,1 0,1 z" id="path44" />
    </g>
  </g>
  <g transform="translate(138.61721,80.184)">
    <g id="liniesnap">
      <path d="m 2,14 c 0,0 0,0.56841 0.70711,0.56841 C 3.41422,14.56841 3.41422,14 3.41422,14 V 2.002 c 0,0 0,-0.56841 -0.70711,-0.56841 C 2,1.43359 2,2.002 2,2.002 Z" id="path45" />
      <path d="M 5,8 C 5,8 4.55401,8 4.55401,8.70711 4.55401,9.41422 5,9.41422 5,9.41422 h 9.4142 c 0,0 0.44599,0 0.44599,-0.70711 C 14.86019,8 14.4142,8 14.4142,8 Z" id="path46" />
    </g>
  </g>
  <g transform="translate(43,43)" style="stroke:#000000">
    <g id="linienpapier">
      <path d="M 2,2 H 14" style="fill:none;stroke:currentColor;stroke-width:1px;stroke-linecap:square" id="path47" />
      <path d="M 2,6 H 14" style="fill:none;stroke:currentColor;stroke-width:1px;stroke-linecap:square" id="path48" />
      <path d="M 2,10 H 14" style="fill:none;stroke:currentColor;stroke-width:1px;stroke-linecap:square" id="path49" />
      <path d="M 2,14 H 14" style="fill:none;stroke:currentColor;stroke-width:1px;stroke-linecap:square" id="path50" />
    </g>
  </g>
  <g transform="translate(43,112.47355)">
    <g id="logpapier">
      <path d="M 2,2 H 14" style="fill:none;stroke:currentColor;stroke-width:1px;stroke-linecap:square" id="path51" />
      <path d="M 2,4 H 14" style="fill:none;stroke:currentColor;stroke-width:1px;stroke-linecap:square" id="path52" />
      <path d="M 2,8 H 14" style="fill:none;stroke:currentColor;stroke-width:1px;stroke-linecap:square" id="path53" />
      <path d="M 2,14 H 14" style="fill:none;stroke:currentColor;stroke-width:1px;stroke-linecap:square" id="path54" />
      <path d="M 14,2 V 14" style="fill:none;stroke:currentColor;stroke-width:1px;stroke-linecap:square" id="path55" />
      <path d="M 12,2 V 14" style="fill:none;stroke:currentColor;stroke-width:1px;stroke-linecap:square" id="path56" />
      <path d="M 8,2 V 14" style="fill:none;stroke:currentColor;stroke-width:1px;stroke-linecap:square" id="path57" />
      <path d="M 2,2 V 14" style="fill:none;stroke:currentColor;stroke-width:1px;stroke-linecap:square" id="path58" />
    </g>
  </g>
  <g transform="translate(169.04862,3.5)">
    <g id="open">
      <path style="fill:currentColor" d="M 8,1 3.5,7 H 6 v 6 h 4 V 7 h 2.5 z M 1,14 v 2 h 14 v -2 z" id="path59" />
    </g>
  </g>
  <g transform="translate(135.0473,170.57711)">
    <g id="pensize-1px">
      <path style="vector-effect:non-scaling-stroke;stroke:currentColor;stroke-width:1;stroke-linecap:round;stroke-linejoin:round" d="m 12,12 v 0" id="path60" />
    </g>
  </g>
  <g transform="translate(105.02365,170.57711)">
    <g id="pensize-3px">
      <path style="vector-effect:non-scaling-stroke;stroke:currentColor;stroke-width:3;stroke-linecap:round;stroke-linejoin:round" d="m 12,12 v 0" id="path61" />
    </g>
  </g>
  <g transform="translate(74,170.57711)">
    <g id="pensize-5px">
      <path style="vector-effect:non-scaling-stroke;stroke:currentColor;stroke-width:5;stroke-linecap:round;stroke-linejoin:round" d="m 12,12 v 0" id="path62" />
    </g>
  </g>
  <g transform="translate(39,170.57711)">
    <g id="pensize-10px">
      <path style="vector-effect:non-scaling-stroke;stroke:currentColor;stroke-width:10;stroke-linecap:round;stroke-linejoin:round" d="m 12,12 v 0" id="path63" />
    </g>
  </g>
  <g transform="translate(0,170.57711)">
    <g id="pensize-20px">
      <path style="vector-effect:non-scaling-stroke;stroke:currentColor;stroke-width:20;stroke-linecap:round;stroke-linejoin:round" d="m 12,12 v 0" id="path64" />
    </g>
  </g>
  <g transform="translate(109.1337,112.58343)">
    <g id="pfeil">
      <path d="M 5.5929,3.0962 2.0017,2.0019 3.096,5.5931 3.84449,4.84462 l 8.7115,8.7115 c 0,0 0.5,0.5 1,0 0.5,-0.5 0,-1 0,-1 L 4.84449,3.84462 5.59297,3.09613 Z" id="path65" />
    </g>
  </g>
  <g transform="translate(237.57448,42.819241)">
    <g id="pfeilsnap">
      <path d="M 4.4726,5 2.707,1.6869 0.9414,5 l 1.0585,7.1e-6 v 8.9674999 c 0,0 0,0.70711 0.70711,0.70711 0.70711,0 0.70711,-0.70711 0.70711,-0.70711 V 5.0000071 L 4.47262,5 Z" id="path66" />
      <path d="m 11.687,11.766 3.3131,-1.7656 -3.3131,-1.7656 -7e-6,1.0585 h -6.856 c 0,0 -0.70711,0 -0.70711,0.70711 0,0.70711 0.70711,0.70711 0.70711,0.70711 h 6.856 l 7e-6,1.0585 z" id="path67" />
    </g>
  </g>
  <g transform="translate(203.29703,174.57711)">
    <g id="prefs">
      <path style="fill:currentColor" d="M 0.6,6 H 3.4 C 3.7324,6 4,6.2676 4,6.6 V 9.4 C 4,9.7324 3.7324,10 3.4,10 H 0.6 C 0.2676,10 0,9.7324 0,9.4 V 6.6 C 0,6.2676 0.2676,6 0.6,6 Z" id="path68" />
      <path style="fill:currentColor" d="M 6.6,6 H 9.4 C 9.7324,6 10,6.2676 10,6.6 V 9.4 C 10,9.7324 9.7324,10 9.4,10 H 6.6 C 6.2676,10 6,9.7324 6,9.4 V 6.6 C 6,6.2676 6.2676,6 6.6,6 Z" id="path69" />
      <path style="fill:currentColor" d="m 12.6,6 h 2.8 C 15.732,6 16,6.2676 16,6.6 V 9.4 C 16,9.7324 15.732,10 15.4,10 H 12.6 C 12.268,10 12,9.7324 12,9.4 V 6.6 C 12,6.2676 12.268,6 12.6,6 Z" id="path70" />
    </g>
  </g>
  <g transform="translate(43,4)">
    <g id="quadrat">
      <rect x="2" y="2" width="12" height="12" style="fill:none;stroke:currentColor;stroke-width:2" id="rect70" />
    </g>
  </g>
  <g transform="translate(4,112.47355)">
    <g id="quadratf">
      <rect x="2" y="2" width="12" height="12" id="rect71" />
    </g>
  </g>
  <g transform="translate(301.46419,43.00039)">
    <g id="radierer-kalibrieren">
      <path d="m 5.0409,11.357 6.4693,-6.4693 c 0,0 0.51754,-0.51754 0,-1.0351 L 7.8874,0.2298 c -0.51754,-0.51754 -1.0351,0 -1.0351,0 L 0.383,6.6991 c -0.51754,0.51754 -0.51754,1.0351 0,1.5526 l 3.1052,3.1052 z M 4.52336,9.8044 H 4.00582 L 2.19442,7.993 c -0.51754,-0.51754 -0.51754,-0.51754 0,-1.0351 l 3.1052,-3.1052 2.5877,2.5877 z" style="fill:currentColor" id="path71" />
      <g transform="matrix(1.3005,0,0,1.3005,-4.1375,-4.3885)" style="stroke-width:0.8458" id="g77">
        <path d="M 13.979,11.935 A 2.2371,2.2371 0 0 1 11.7419,14.1721 2.2371,2.2371 0 0 1 9.5048,11.935 2.2371,2.2371 0 0 1 11.7419,9.6979 2.2371,2.2371 0 0 1 13.979,11.935 Z" style="opacity:0.992;fill:none;stroke:currentColor;stroke-width:0.8458" id="path72" />
        <g style="stroke-width:0.8458" id="g76">
          <path d="M 9.5049,11.935 H 8" style="fill:none;stroke:currentColor;stroke-width:0.8458" id="path73" />
          <path d="M 15.484,11.935 H 13.9791" style="fill:none;stroke:currentColor;stroke-width:0.8458" id="path74" />
          <path d="M 11.742,9.6979 V 8.193" style="fill:none;stroke:currentColor;stroke-width:0.8458" id="path75" />
          <path d="M 11.742,15.677 V 14.1721" style="fill:none;stroke:currentColor;stroke-width:0.8458" id="path76" />
        </g>
        <path d="m 12.932,11.935 a 1.19,1.19 0 0 1 -1.19,1.19 1.19,1.19 0 0 1 -1.19,-1.19 1.19,1.19 0 0 1 1.19,-1.19 1.19,1.19 0 0 1 1.19,1.19 z" style="opacity:0.992;fill:currentColor" id="path77" />
      </g>
    </g>
  </g>
  <g transform="translate(109.00513,79.933486)">
    <g id="radierer">
      <path d="m 6.8891,16.01 8.8388,-8.8388 c 0,0 0.70711,-0.70711 0,-1.4142 L 10.7782,0.8073 c -0.70711,-0.70711 -1.4142,0 -1.4142,0 L 0.5252,9.6461 c -0.70711,0.70711 -0.70711,1.4142 0,2.1213 L 4.7678,16.01 Z M 6.18199,13.8887 H 5.47488 l -2.4749,-2.4749 c -0.70711,-0.70711 -0.70711,-0.70711 0,-1.4142 l 4.2426,-4.2426 3.5355,3.5355 z" id="path78" />
    </g>
  </g>
  <g transform="translate(39,76.185)">
    <g id="radiergummi">
      <path d="M 18.289368,19.64706 H 24 V 22 H 15.884892 Z M 3.2613903,22 0.70663397,19.5 C 0.24578613,19.04904 0.01032777,18.4902 3.1913041e-4,17.82352 -0.0096895,17.15686 0.21572115,16.58823 0.67657804,16.11765 L 13.901199,2.70588 C 14.362047,2.23531 14.928121,2 15.59936,2 c 0.67124,0 1.237314,0.22549 1.698162,0.67647 l 5.981135,5.85294 c 0.460848,0.45097 0.691287,1.0098 0.691287,1.67647 0,0.66667 -0.23043,1.2255 -0.691287,1.67646 L 13.179856,22 Z M 12.157953,19.64706 19.003197,12.71325 13.052118,6.8897 2.3597116,17.76471 4.2832929,19.64706 Z" id="path79" />
    </g>
  </g>
  <g transform="translate(200.05013,1.4594978)">
    <g id="radiergummi-kalibrieren">
      <g transform="matrix(1.5451,0,0,1.5451,-12.361,-12.659)" style="stroke:currentColor;stroke-width:0.71191" id="g85">
        <path d="M 13.979,11.935 A 2.2371,2.2371 0 0 1 11.7419,14.1721 2.2371,2.2371 0 0 1 9.5048,11.935 2.2371,2.2371 0 0 1 11.7419,9.6979 2.2371,2.2371 0 0 1 13.979,11.935 Z" style="opacity:0.992;fill:none;stroke:currentColor;stroke-width:0.71191" id="path80" />
        <g style="stroke:currentColor;stroke-width:0.71191" id="g84">
          <path d="M 9.5049,11.935 H 8" style="fill:none;stroke:currentColor;stroke-width:0.71191" id="path81" />
          <path d="M 15.484,11.935 H 13.9791" style="fill:none;stroke:currentColor;stroke-width:0.71191" id="path82" />
          <path d="M 11.742,9.6979 V 8.193" style="fill:none;stroke:currentColor;stroke-width:0.71191" id="path83" />
          <path d="M 11.742,15.677 V 14.1721" style="fill:none;stroke:currentColor;stroke-width:0.71191" id="path84" />
        </g>
        <path d="m 12.932,11.935 a 1.19,1.19 0 0 1 -1.19,1.19 1.19,1.19 0 0 1 -1.19,-1.19 1.19,1.19 0 0 1 1.19,-1.19 1.19,1.19 0 0 1 1.19,1.19 z" style="opacity:0.992;fill:currentColor;stroke:none" id="path85" />
      </g>
      <path d="m 17.744,19.081 h 4.75 v 2 h -6.75 z m -12.5,2 -2.125,-2.125 C 2.73568,18.57268 2.53982,18.09768 2.5315,17.531 2.5232,16.96432 2.71067,16.481 3.094,16.081 l 11,-11.4 c 0.38332,-0.4 0.85418,-0.6 1.4125,-0.6 0.55832,0 1.0292,0.19167 1.4125,0.575 l 4.975,4.975 c 0.38332,0.38332 0.575,0.85832 0.575,1.425 0,0.56668 -0.19167,1.0417 -0.575,1.425 l -8.4,8.6 z m 7.4,-2 5.6938,-5.8938 -4.95,-4.95 -8.8938,9.2438 1.6,1.6 z" style="stroke-width:0.025" id="path86" />
    </g>
  </g>
  <g transform="translate(169.04862,174.57711)">
    <g id="rechteck">
      <path d="m 1,4 v 8 H 15 V 4 Z m 2,2 h 10 v 4 H 3 Z" id="path87" />
    </g>
  </g>
  <g transform="translate(203.29703,142.07711)">
    <g id="rechteckf">
      <rect x="2" y="5" width="12" height="6" id="rect87" />
    </g>
  </g>
  <g transform="translate(4.5,142.07711)">
    <g id="redo">
      <path d="M 9,2 14,5 9,8 V 6 H 6 C 4.32,6 3,7.321 3,9 c 0,1.679 1.32,3 3,3 h 5 v 2 H 6 C 3.25,14 1,11.753 1,9 1,6.247 3.25,4 6,4 h 3 z" id="path88" />
    </g>
  </g>
  <g transform="translate(301.46133,141.57711)">
    <g id="save">
      <path d="M 6,1 V 7 H 3.5 L 8,13 12.5,7 H 10 V 1 Z M 1,14 v 2 h 14 v -2 z" id="path89" />
    </g>
  </g>
  <g transform="translate(3,3)">
    <g id="save-black-24dp">
      <path d="M -3,-3 H 21 V 21 H -3 Z" fill="none" id="path90" />
      <path d="M 14,0 H 2 C 0.89,0 0,0.9 0,2 v 14 c 0,1.1 0.89,2 2,2 h 14 c 1.1,0 2,-0.9 2,-2 V 4 Z m 2.5,16.5 H 1.5 V 1.5 H 13.17 L 16.5,4.83 Z M 9,9 c -1.66,0 -3,1.34 -3,3 0,1.66 1.34,3 3,3 1.66,0 3,-1.34 3,-3 C 12,10.34 10.66,9 9,9 Z M 3,3 h 9 V 7 H 3 Z" id="path91" />
    </g>
  </g>
  <g transform="translate(0,39)">
    <g id="settings">
      <path d="M 0,0 H 24 V 24 H 0 Z" fill="none" id="path92" />
      <path d="m 19.43,12.98 c 0.04,-0.32 0.07,-0.64 0.07,-0.98 0,-0.34 -0.03,-0.66 -0.07,-0.98 l 2.11,-1.65 c 0.19,-0.15 0.24,-0.42 0.12,-0.64 l -2,-3.46 C 19.57,5.11 19.4,5.02 19.22,5.02 c -0.06,0 -0.12,0.01 -0.17,0.03 l -2.49,1 C 16.04,5.65 15.48,5.32 14.87,5.07 L 14.49,2.42 C 14.46,2.18 14.25,2 14,2 H 10 C 9.75,2 9.54,2.18 9.51,2.42 L 9.13,5.07 C 8.52,5.32 7.96,5.66 7.44,6.05 l -2.49,-1 C 4.89,5.03 4.83,5.02 4.77,5.02 4.6,5.02 4.43,5.11 4.34,5.27 l -2,3.46 C 2.21,8.95 2.27,9.22 2.46,9.37 l 2.11,1.65 C 4.53,11.34 4.5,11.67 4.5,12 c 0,0.33 0.03,0.66 0.07,0.98 l -2.11,1.65 c -0.19,0.15 -0.24,0.42 -0.12,0.64 l 2,3.46 c 0.09,0.16 0.26,0.25 0.44,0.25 0.06,0 0.12,-0.01 0.17,-0.03 l 2.49,-1 c 0.52,0.4 1.08,0.73 1.69,0.98 l 0.38,2.65 C 9.54,21.82 9.75,22 10,22 h 4 c 0.25,0 0.46,-0.18 0.49,-0.42 l 0.38,-2.65 c 0.61,-0.25 1.17,-0.59 1.69,-0.98 l 2.49,1 c 0.06,0.02 0.12,0.03 0.18,0.03 0.17,0 0.34,-0.09 0.43,-0.25 l 2,-3.46 c 0.12,-0.22 0.07,-0.49 -0.12,-0.64 z m -1.98,-1.71 c 0.04,0.31 0.05,0.52 0.05,0.73 0,0.21 -0.02,0.43 -0.05,0.73 l -0.14,1.13 0.89,0.7 1.08,0.84 -0.7,1.21 -1.27,-0.51 -1.04,-0.42 -0.9,0.68 c -0.43,0.32 -0.84,0.56 -1.25,0.73 L 13.06,17.52 12.9,18.65 12.7,20 H 11.3 L 11.11,18.65 10.95,17.52 9.89,17.09 C 9.46,16.91 9.06,16.68 8.66,16.38 L 7.75,15.68 6.69,16.11 5.42,16.62 4.72,15.41 5.8,14.57 6.69,13.87 6.55,12.74 C 6.52,12.43 6.5,12.2 6.5,12 6.5,11.8 6.52,11.57 6.55,11.27 L 6.69,10.14 5.8,9.44 4.72,8.6 5.42,7.39 6.69,7.9 7.73,8.32 8.63,7.64 C 9.06,7.32 9.47,7.08 9.88,6.91 L 10.94,6.48 11.1,5.35 11.3,4 h 1.39 l 0.19,1.35 0.16,1.13 1.06,0.43 c 0.43,0.18 0.83,0.41 1.23,0.71 l 0.91,0.7 1.06,-0.43 1.27,-0.51 0.7,1.21 -1.07,0.85 -0.89,0.7 z M 12,8 c -2.21,0 -4,1.79 -4,4 0,2.21 1.79,4 4,4 2.21,0 4,-1.79 4,-4 0,-2.21 -1.79,-4 -4,-4 z m 0,6 c -1.1,0 -2,-0.9 -2,-2 0,-1.1 0.9,-2 2,-2 1.1,0 2,0.9 2,2 0,1.1 -0.9,2 -2,2 z" id="path93" />
    </g>
  </g>
  <g transform="translate(238.43273,3.1125)">
    <g id="stift">
      <path d="m 0,13 v 2.999 L 3,16 11,8 8,5 Z M 14,5 C 14.3,4.7 14.3,4.3 14,4 L 12,2 C 11.7,1.7 11.3,1.7 11,2 l -2,2 3,3 z" id="path94" />
    </g>
  </g>
  <g transform="translate(270.93978,144.47037)">
    <g id="toolbar">
      <g transform="translate(-6.6934,-6.3154)" id="g95">
        <path d="m 7.7856,6.3154 -1.0922,0.98974 4.184,4.6164 -4.184,4.6176 1.0922,0.98974 5.0809,-5.6073 z m 5.04,0 -1.0922,0.98974 4.184,4.6164 -4.184,4.6176 1.0922,0.98974 5.0809,-5.6073 z" style="opacity:0.992;fill-rule:evenodd;stroke-width:0.29104" id="path95" />
      </g>
    </g>
  </g>
  <g transform="translate(78.5,42.75)">
    <g id="trash">
      <path d="m 10,7.5 -0.5,5 m -2,-5 v 5 m -2.5,-5 0.5,5 m -3,-7.5 1,10 h 8 l 1,-10 z" style="fill:none;stroke:currentColor;stroke-width:1px" id="path96" />
      <path d="m 5,3.5 0.5,-2 h 4 l 0.5,2 m -8,0 h 11" style="fill:none;stroke:currentColor;stroke-width:1px" id="path97" />
    </g>
  </g>
  <g transform="translate(300.96133,112.47355)">
    <g id="undo">
      <path d="M 7,2 2,5 7,8 V 6 h 3 c 1.68,0 3,1.321 3,3 0,1.679 -1.32,3 -3,3 H 5 v 2 h 5 c 2.75,0 5,-2.247 5,-5 C 15,6.247 12.75,4 10,4 H 7 Z" id="path98" />
    </g>
  </g>
  <g transform="translate(241.31179,116.24016)">
    <g id="unknown">
      <g transform="matrix(1.2911,0,0,1.2911,-3.0043,-0.59313)" style="stroke-width:0.20493" aria-label="?" id="g99">
        <path d="M 4.9161,6.6146 V 5.86805 H 5.66265 V 6.6146 Z m 0,-1.4969 V 4.91306 q 0,-0.42444 0.11369,-0.70487 0.11748,-0.28043 0.44338,-0.6556 L 5.71191,3.27595 q 0.59497,-0.68213 0.59497,-1.1179 0,-0.33727 -0.26527,-0.53433 -0.26148,-0.19706 -0.70866,-0.19706 -0.57223,0 -1.224,0.28043 V 1.07423 q 0.70108,-0.21222 1.3188,-0.21222 0.76929,0 1.2203,0.34864 Q 7.1028,1.5555 7.1028,2.14668 7.1028,2.48016 6.97016,2.7227 6.84131,2.96144 6.46993,3.31388 L 6.23497,3.53368 Q 5.88254,3.86716 5.77264,4.09454 5.66274,4.31813 5.66274,4.70088 v 0.41686 z" style="stroke-width:0.20493" id="path99" />
      </g>
    </g>
  </g>
  <g transform="translate(139.0473,43)">
    <g id="zoom-in">
      <path d="M 3,2 C 2.45,2 2,2.446 2,3 v 10 c 0,0.554 0.45,1 1,1 h 10 c 0.55,0 1,-0.446 1,-1 V 3 C 14,2.446 13.55,2 13,2 Z m 4,3 h 2 v 2 h 2 V 9 H 9 v 2 H 7 V 9 H 5 V 7 h 2 z" id="path100" />
    </g>
  </g>
  <g transform="translate(109.02365,4)">
    <g id="zoom-reset">
      <path d="M 3,2 C 2.45,2 2,2.446 2,3 v 10 c 0,0.554 0.45,1 1,1 h 10 c 0.55,0 1,-0.446 1,-1 V 3 C 14,2.446 13.55,2 13,2 Z m 4,3 h 2 v 6 H 7 V 7 H 6 V 6 C 6,6 7,6 7,5 Z" id="path101" />
    </g>
  </g>
  <g transform="translate(139.0473,4)">
    <g id="zoom-out">
      <path d="M 3,2 C 2.45,2 2,2.446 2,3 v 10 c 0,0.554 0.45,1 1,1 h 10 c 0.55,0 1,-0.446 1,-1 V 3 C 14,2.446 13.55,2 13,2 Z m 2,5 h 6 V 9 H 5 Z" id="path102" />
    </g>
  </g>
</svg>
